# xmcd
#
# Track frame offsets:
#	150
#	1850
#	12515
#	26050
#	40555
#	56087
#	68470
#	77497
#	89332
#	105147
#	115775
#	130025
#	144692
#	156910
#	167475
#
# Disc length: 2424 seconds
#
# Revision: 0
# Processed by: cddbd v1.4PL0 Copyright (c) Steve Scherf et al.
# Submitted via: audiograbber 1.81.03
#
DISCID=aa09760f
DTITLE=Los Originales De San Juan Vs Los Razos - Que Buena La Lucha De Las Estr
DTITLE=ellas (La Revancha Vol. 2)
DYEAR=2002
DGENRE=Latin
TTITLE0=Intro
TTITLE1=Cariñitos A Tu Perro
TTITLE2=La Momia
TTITLE3=El Poca Madre
TTITLE4=Corte 2
TTITLE5=Hijos De Su Santa Madre
TTITLE6=El Rey De La Mota
TTITLE7=Michoacano Hasta La Madre
TTITLE8=Corte 3
TTITLE9=La Pachanga
TTITLE10=Ya Saben Que Soy Chingon
TTITLE11=Contrato Con La Muerte
TTITLE12=Mas Chingon Que Ese Buey
TTITLE13=Corte 4
TTITLE14=El Cara De Chango
EXTD=Carlos_Mp3s Rips
EXTT0=
EXTT1=
EXTT2=
EXTT3=
EXTT4=
EXTT5=
EXTT6=
EXTT7=
EXTT8=
EXTT9=
EXTT10=
EXTT11=
EXTT12=
EXTT13=
EXTT14=
PLAYORDER=
